<mxfile host="app.diagrams.net" modified="2022-07-04T16:58:52.913Z" agent="5.0 (Macintosh; Intel Mac OS X 10_15_7) AppleWebKit/605.1.15 (KHTML, like Gecko) Version/15.4 Safari/605.1.15" etag="erG1g-Ls0-E8JGyFu4wZ" version="20.0.4" type="github">
  <diagram name="Page-1" id="f1b7ffb7-ca1e-a977-7cf5-a751b3c06c05">
    <mxGraphModel dx="976" dy="790" grid="1" gridSize="10" guides="1" tooltips="1" connect="1" arrows="1" fold="1" page="1" pageScale="1" pageWidth="826" pageHeight="1169" background="none" math="0" shadow="0">
      <root>
        <mxCell id="0" />
        <mxCell id="1" parent="0" />
        <mxCell id="7U0UcvtXGMc5YS8rFjJw-63" value="" style="verticalLabelPosition=bottom;verticalAlign=top;strokeWidth=1;shape=mxgraph.mockup.graphics.iconGrid;strokeColor=#CCCCCC;gridSize=1,1;" parent="1" vertex="1">
          <mxGeometry x="20" y="70" width="790" height="240" as="geometry" />
        </mxCell>
        <mxCell id="7U0UcvtXGMc5YS8rFjJw-67" value="" style="rounded=0;whiteSpace=wrap;html=1;fontSize=18;" parent="1" vertex="1">
          <mxGeometry width="820" height="70" as="geometry" />
        </mxCell>
        <mxCell id="2" value="Website Name" style="text;spacingTop=-5;fontSize=22;fontStyle=0" parent="1" vertex="1">
          <mxGeometry x="20" y="20" width="150" height="30" as="geometry" />
        </mxCell>
        <mxCell id="5" value="Browse" style="text;spacingTop=-5;" parent="1" vertex="1">
          <mxGeometry x="570" y="25.000000000000085" width="30" height="20" as="geometry" />
        </mxCell>
        <mxCell id="8" value="Home / Game Console" style="text;spacingTop=-5;" parent="1" vertex="1">
          <mxGeometry x="190" y="330" width="30" height="20" as="geometry" />
        </mxCell>
        <mxCell id="7U0UcvtXGMc5YS8rFjJw-61" value="&lt;font style=&quot;font-size: 14px;&quot;&gt;search bar&lt;/font&gt;" style="rounded=0;whiteSpace=wrap;html=1;fontSize=25;verticalAlign=bottom;" parent="1" vertex="1">
          <mxGeometry x="190" y="20" width="350" height="30" as="geometry" />
        </mxCell>
        <mxCell id="7U0UcvtXGMc5YS8rFjJw-62" value="SELL" style="rounded=1;whiteSpace=wrap;html=1;fontSize=18;arcSize=28;" parent="1" vertex="1">
          <mxGeometry x="740" y="15" width="70" height="40" as="geometry" />
        </mxCell>
        <mxCell id="26" value="Large Banner for different categories" style="text;spacingTop=-5;align=center;verticalAlign=middle;fontSize=36;fontColor=#CCCCCC" parent="1" vertex="1">
          <mxGeometry x="20" y="70" width="790" height="240" as="geometry" />
        </mxCell>
        <mxCell id="7U0UcvtXGMc5YS8rFjJw-65" value="Help" style="text;spacingTop=-5;" parent="1" vertex="1">
          <mxGeometry x="620" y="25.000000000000085" width="30" height="20" as="geometry" />
        </mxCell>
        <mxCell id="7U0UcvtXGMc5YS8rFjJw-66" value="My Account" style="text;spacingTop=-5;" parent="1" vertex="1">
          <mxGeometry x="660" y="25.000000000000085" width="30" height="20" as="geometry" />
        </mxCell>
        <mxCell id="7U0UcvtXGMc5YS8rFjJw-72" value="" style="rounded=0;whiteSpace=wrap;html=1;fontSize=22;" parent="1" vertex="1">
          <mxGeometry x="630" y="325" width="120" height="30" as="geometry" />
        </mxCell>
        <mxCell id="7U0UcvtXGMc5YS8rFjJw-85" value="Sort By :" style="text;spacingTop=-5;" parent="1" vertex="1">
          <mxGeometry x="640" y="330" width="30" height="20" as="geometry" />
        </mxCell>
        <mxCell id="7U0UcvtXGMc5YS8rFjJw-97" value="" style="group" parent="1" vertex="1" connectable="0">
          <mxGeometry x="400" y="360" width="200" height="250" as="geometry" />
        </mxCell>
        <mxCell id="7U0UcvtXGMc5YS8rFjJw-98" value="" style="rounded=0;whiteSpace=wrap;html=1;fontSize=8;" parent="7U0UcvtXGMc5YS8rFjJw-97" vertex="1">
          <mxGeometry width="200" height="250" as="geometry" />
        </mxCell>
        <mxCell id="7U0UcvtXGMc5YS8rFjJw-99" value="" style="verticalLabelPosition=bottom;verticalAlign=top;strokeWidth=1;shape=mxgraph.mockup.graphics.iconGrid;strokeColor=#CCCCCC;gridSize=1,1;" parent="7U0UcvtXGMc5YS8rFjJw-97" vertex="1">
          <mxGeometry x="10" y="10" width="180" height="180" as="geometry" />
        </mxCell>
        <mxCell id="7U0UcvtXGMc5YS8rFjJw-100" value="Item Name" style="text;spacingTop=-5;" parent="7U0UcvtXGMc5YS8rFjJw-97" vertex="1">
          <mxGeometry x="10" y="200" width="30" height="20" as="geometry" />
        </mxCell>
        <mxCell id="7U0UcvtXGMc5YS8rFjJw-101" value="HK$ XXXX" style="text;spacingTop=-5;whiteSpace=wrap;align=left;fontSize=22;" parent="7U0UcvtXGMc5YS8rFjJw-97" vertex="1">
          <mxGeometry x="10" y="215" width="180" height="30" as="geometry" />
        </mxCell>
        <mxCell id="7U0UcvtXGMc5YS8rFjJw-108" value="PHOTO" style="text;spacingTop=-5;align=center;verticalAlign=middle;fontSize=36;fontColor=#CCCCCC" parent="7U0UcvtXGMc5YS8rFjJw-97" vertex="1">
          <mxGeometry x="10" y="10" width="180" height="180" as="geometry" />
        </mxCell>
        <mxCell id="7U0UcvtXGMc5YS8rFjJw-102" value="" style="group" parent="1" vertex="1" connectable="0">
          <mxGeometry x="610" y="360" width="200" height="250" as="geometry" />
        </mxCell>
        <mxCell id="7U0UcvtXGMc5YS8rFjJw-103" value="" style="rounded=0;whiteSpace=wrap;html=1;fontSize=8;" parent="7U0UcvtXGMc5YS8rFjJw-102" vertex="1">
          <mxGeometry width="200" height="250" as="geometry" />
        </mxCell>
        <mxCell id="7U0UcvtXGMc5YS8rFjJw-104" value="" style="verticalLabelPosition=bottom;verticalAlign=top;strokeWidth=1;shape=mxgraph.mockup.graphics.iconGrid;strokeColor=#CCCCCC;gridSize=1,1;" parent="7U0UcvtXGMc5YS8rFjJw-102" vertex="1">
          <mxGeometry x="10" y="10" width="180" height="180" as="geometry" />
        </mxCell>
        <mxCell id="7U0UcvtXGMc5YS8rFjJw-105" value="Item Name" style="text;spacingTop=-5;" parent="7U0UcvtXGMc5YS8rFjJw-102" vertex="1">
          <mxGeometry x="10" y="200" width="30" height="20" as="geometry" />
        </mxCell>
        <mxCell id="7U0UcvtXGMc5YS8rFjJw-106" value="HK$ XXXX" style="text;spacingTop=-5;whiteSpace=wrap;align=left;fontSize=22;" parent="7U0UcvtXGMc5YS8rFjJw-102" vertex="1">
          <mxGeometry x="10" y="215" width="180" height="30" as="geometry" />
        </mxCell>
        <mxCell id="7U0UcvtXGMc5YS8rFjJw-109" value="PHOTO" style="text;spacingTop=-5;align=center;verticalAlign=middle;fontSize=36;fontColor=#CCCCCC" parent="7U0UcvtXGMc5YS8rFjJw-102" vertex="1">
          <mxGeometry x="10" y="10" width="180" height="180" as="geometry" />
        </mxCell>
        <mxCell id="7U0UcvtXGMc5YS8rFjJw-110" value="" style="group" parent="1" vertex="1" connectable="0">
          <mxGeometry x="190" y="360" width="200" height="250" as="geometry" />
        </mxCell>
        <mxCell id="7U0UcvtXGMc5YS8rFjJw-84" value="" style="rounded=0;whiteSpace=wrap;html=1;fontSize=8;" parent="7U0UcvtXGMc5YS8rFjJw-110" vertex="1">
          <mxGeometry width="200" height="250" as="geometry" />
        </mxCell>
        <mxCell id="50" value="" style="verticalLabelPosition=bottom;verticalAlign=top;strokeWidth=1;shape=mxgraph.mockup.graphics.iconGrid;strokeColor=#CCCCCC;gridSize=1,1;" parent="7U0UcvtXGMc5YS8rFjJw-110" vertex="1">
          <mxGeometry x="10" y="10" width="180" height="180" as="geometry" />
        </mxCell>
        <mxCell id="51" value="Item Name" style="text;spacingTop=-5;" parent="7U0UcvtXGMc5YS8rFjJw-110" vertex="1">
          <mxGeometry x="10" y="200" width="30" height="20" as="geometry" />
        </mxCell>
        <mxCell id="52" value="HK$ XXXX" style="text;spacingTop=-5;whiteSpace=wrap;align=left;fontSize=22;" parent="7U0UcvtXGMc5YS8rFjJw-110" vertex="1">
          <mxGeometry x="10" y="215" width="180" height="30" as="geometry" />
        </mxCell>
        <mxCell id="7U0UcvtXGMc5YS8rFjJw-107" value="PHOTO" style="text;spacingTop=-5;align=center;verticalAlign=middle;fontSize=36;fontColor=#CCCCCC" parent="7U0UcvtXGMc5YS8rFjJw-110" vertex="1">
          <mxGeometry x="10" y="10" width="180" height="180" as="geometry" />
        </mxCell>
        <mxCell id="7U0UcvtXGMc5YS8rFjJw-111" value="" style="group" parent="1" vertex="1" connectable="0">
          <mxGeometry x="190" y="620" width="200" height="250" as="geometry" />
        </mxCell>
        <mxCell id="7U0UcvtXGMc5YS8rFjJw-112" value="" style="rounded=0;whiteSpace=wrap;html=1;fontSize=8;" parent="7U0UcvtXGMc5YS8rFjJw-111" vertex="1">
          <mxGeometry width="200" height="250" as="geometry" />
        </mxCell>
        <mxCell id="7U0UcvtXGMc5YS8rFjJw-113" value="" style="verticalLabelPosition=bottom;verticalAlign=top;strokeWidth=1;shape=mxgraph.mockup.graphics.iconGrid;strokeColor=#CCCCCC;gridSize=1,1;" parent="7U0UcvtXGMc5YS8rFjJw-111" vertex="1">
          <mxGeometry x="10" y="10" width="180" height="180" as="geometry" />
        </mxCell>
        <mxCell id="7U0UcvtXGMc5YS8rFjJw-114" value="Item Name" style="text;spacingTop=-5;" parent="7U0UcvtXGMc5YS8rFjJw-111" vertex="1">
          <mxGeometry x="10" y="200" width="30" height="20" as="geometry" />
        </mxCell>
        <mxCell id="7U0UcvtXGMc5YS8rFjJw-115" value="HK$ XXXX" style="text;spacingTop=-5;whiteSpace=wrap;align=left;fontSize=22;" parent="7U0UcvtXGMc5YS8rFjJw-111" vertex="1">
          <mxGeometry x="10" y="215" width="180" height="30" as="geometry" />
        </mxCell>
        <mxCell id="7U0UcvtXGMc5YS8rFjJw-116" value="PHOTO" style="text;spacingTop=-5;align=center;verticalAlign=middle;fontSize=36;fontColor=#CCCCCC" parent="7U0UcvtXGMc5YS8rFjJw-111" vertex="1">
          <mxGeometry x="10" y="10" width="180" height="180" as="geometry" />
        </mxCell>
        <mxCell id="7U0UcvtXGMc5YS8rFjJw-117" value="" style="rounded=0;whiteSpace=wrap;html=1;labelBackgroundColor=#E6E6E6;fontSize=22;fontColor=none;" parent="1" vertex="1">
          <mxGeometry x="20" y="330" width="150" height="570" as="geometry" />
        </mxCell>
        <mxCell id="7U0UcvtXGMc5YS8rFjJw-118" value="Navigation" style="text;spacingTop=-5;align=center;verticalAlign=middle;fontSize=23;fontColor=#CCCCCC" parent="1" vertex="1">
          <mxGeometry x="20" y="330" width="150" height="570" as="geometry" />
        </mxCell>
        <mxCell id="7U0UcvtXGMc5YS8rFjJw-119" value="&lt;&lt; Prev 1 2 3 4 5 6 7 8 9 10 Next &gt;&gt;" style="strokeWidth=1;shadow=0;dashed=0;align=center;html=1;shape=mxgraph.mockup.navigation.pagination;linkText=;fontSize=17;fontColor=#0000ff;fontStyle=4;labelBackgroundColor=#E6E6E6;" parent="1" vertex="1">
          <mxGeometry x="320" y="880" width="350" height="30" as="geometry" />
        </mxCell>
        <mxCell id="7U0UcvtXGMc5YS8rFjJw-120" value="" style="group" parent="1" vertex="1" connectable="0">
          <mxGeometry x="400" y="620" width="200" height="250" as="geometry" />
        </mxCell>
        <mxCell id="7U0UcvtXGMc5YS8rFjJw-121" value="" style="rounded=0;whiteSpace=wrap;html=1;fontSize=8;" parent="7U0UcvtXGMc5YS8rFjJw-120" vertex="1">
          <mxGeometry width="200" height="250" as="geometry" />
        </mxCell>
        <mxCell id="7U0UcvtXGMc5YS8rFjJw-122" value="" style="verticalLabelPosition=bottom;verticalAlign=top;strokeWidth=1;shape=mxgraph.mockup.graphics.iconGrid;strokeColor=#CCCCCC;gridSize=1,1;" parent="7U0UcvtXGMc5YS8rFjJw-120" vertex="1">
          <mxGeometry x="10" y="10" width="180" height="180" as="geometry" />
        </mxCell>
        <mxCell id="7U0UcvtXGMc5YS8rFjJw-123" value="Item Name" style="text;spacingTop=-5;" parent="7U0UcvtXGMc5YS8rFjJw-120" vertex="1">
          <mxGeometry x="10" y="200" width="30" height="20" as="geometry" />
        </mxCell>
        <mxCell id="7U0UcvtXGMc5YS8rFjJw-124" value="HK$ XXXX" style="text;spacingTop=-5;whiteSpace=wrap;align=left;fontSize=22;" parent="7U0UcvtXGMc5YS8rFjJw-120" vertex="1">
          <mxGeometry x="10" y="215" width="180" height="30" as="geometry" />
        </mxCell>
        <mxCell id="7U0UcvtXGMc5YS8rFjJw-125" value="PHOTO" style="text;spacingTop=-5;align=center;verticalAlign=middle;fontSize=36;fontColor=#CCCCCC" parent="7U0UcvtXGMc5YS8rFjJw-120" vertex="1">
          <mxGeometry x="10" y="10" width="180" height="180" as="geometry" />
        </mxCell>
        <mxCell id="7U0UcvtXGMc5YS8rFjJw-126" value="" style="rounded=0;whiteSpace=wrap;html=1;labelBackgroundColor=#E6E6E6;fontSize=23;fontColor=none;" parent="1" vertex="1">
          <mxGeometry y="920" width="820" height="249" as="geometry" />
        </mxCell>
        <mxCell id="7U0UcvtXGMc5YS8rFjJw-127" value="FOOTER" style="text;spacingTop=-5;align=center;verticalAlign=middle;fontSize=36;fontColor=#CCCCCC" parent="1" vertex="1">
          <mxGeometry y="919" width="820" height="250" as="geometry" />
        </mxCell>
      </root>
    </mxGraphModel>
  </diagram>
</mxfile>
